<svg width="332" height="298" xmlns="http://www.w3.org/2000/svg" viewBox="0 0 332 298" fill="currentColor">
  <!-- SVG content -->
    <path d="M127.958 273.167L122.425 233.433C119.428 232.399 116.603 231.157 113.952 229.708C111.301 228.26 108.707 226.708 106.171 225.052L65.0167 240.573L26.975 181.594L62.5958 157.381C62.3653 155.933 62.25 154.536 62.25 153.191V144.809C62.25 143.464 62.3653 142.067 62.5958 140.619L26.975 116.406L65.0167 57.4271L106.171 72.9479C108.707 71.2923 111.358 69.7403 114.125 68.2916C116.892 66.843 119.658 65.6014 122.425 64.5666L127.958 24.8333H204.042L209.575 64.5666C212.572 65.6014 215.397 66.843 218.048 68.2916C220.699 69.7403 223.293 71.2923 225.829 72.9479L266.983 57.4271L305.025 116.406L269.404 140.619C269.635 142.067 269.75 143.464 269.75 144.809V153.191C269.75 154.536 269.519 155.933 269.058 157.381L304.679 181.594L266.637 240.573L225.829 225.052C223.293 226.708 220.642 228.26 217.875 229.708C215.108 231.157 212.342 232.399 209.575 233.433L204.042 273.167H127.958ZM166.692 192.458C180.064 192.458 191.476 188.216 200.929 179.731C210.382 171.247 215.108 161.003 215.108 149C215.108 136.997 210.382 126.753 200.929 118.269C191.476 109.784 180.064 105.542 166.692 105.542C153.089 105.542 141.619 109.784 132.281 118.269C122.944 126.753 118.275 136.997 118.275 149C118.275 161.003 122.944 171.247 132.281 179.731C141.619 188.216 153.089 192.458 166.692 192.458Z" fill="black"/>
</svg>